<svg width="54" height="32" viewBox="0 0 54 32" fill="none" xmlns="http://www.w3.org/2000/svg"><path d="M45.6297 20.3044V19.8422H45.5109L45.3736 20.1597L45.2369 19.8422H45.1175V20.3044H45.2018V19.9558L45.3303 20.2567H45.4176L45.546 19.9551V20.3044H45.6297ZM44.8763 20.3044V19.921H45.0286V19.8429H44.6404V19.921H44.7927V20.3044H44.8763Z" fill="#0099DF"/><path d="M32.1305 22.2928H21.8557V3.55005H32.1305V22.2928Z" fill="#6C6BBD"/><path d="M22.5145 12.9199C22.5145 9.11781 24.2683 5.73104 26.9995 3.54848C25.0022 1.95248 22.4816 0.999882 19.7422 0.999882C13.257 0.999882 8 6.33655 8 12.9199C8 19.5032 13.257 24.8398 19.7422 24.8398C22.4816 24.8398 25.0022 23.8872 26.9995 22.2912C24.2683 20.1087 22.5145 16.7219 22.5145 12.9199Z" fill="#EB001B"/><path d="M45.988 12.9199C45.988 19.5032 40.731 24.8398 34.2458 24.8398C31.5064 24.8398 28.9858 23.8872 26.9878 22.2912C29.7197 20.1087 31.4735 16.7219 31.4735 12.9199C31.4735 9.11781 29.7197 5.73104 26.9878 3.54848C28.9858 1.95248 31.5064 0.999882 34.2458 0.999882C40.731 0.999882 45.988 6.33655 45.988 12.9199Z" fill="#0099DF"/><path d="M35.5948 27.5856C35.7315 27.5856 35.9278 27.6121 36.0779 27.672L35.8689 28.3207C35.7255 28.2608 35.5822 28.2411 35.4448 28.2411C35.0013 28.2411 34.7795 28.5321 34.7795 29.055V30.8299H34.1008V27.6652H34.7728V28.0494C34.949 27.7712 35.2036 27.5856 35.5948 27.5856ZM33.0877 28.2942H31.9789V29.7242C31.9789 30.0417 32.0894 30.2539 32.4291 30.2539C32.6053 30.2539 32.8271 30.194 33.0287 30.0751L33.2243 30.6639C33.0093 30.8162 32.6703 30.9094 32.3769 30.9094C31.5742 30.9094 31.2943 30.4722 31.2943 29.7371V28.2942H30.6611V27.6652H31.2943V26.705H31.9789V27.6652H33.0877V28.2942ZM24.4051 28.9694C24.4775 28.5124 24.7508 28.2009 25.2339 28.2009C25.6707 28.2009 25.9514 28.4791 26.0231 28.9694H24.4051ZM26.7279 29.2475C26.7212 28.2608 26.1209 27.5856 25.2466 27.5856C24.3334 27.5856 23.6943 28.2608 23.6943 29.2475C23.6943 30.2532 24.3596 30.9087 25.2929 30.9087C25.7625 30.9087 26.1925 30.7897 26.5711 30.4654L26.2381 29.9553C25.9775 30.1675 25.6445 30.2865 25.3317 30.2865C24.8949 30.2865 24.497 30.0811 24.3991 29.512H26.7144C26.7212 29.4256 26.7279 29.34 26.7279 29.2475ZM29.7084 28.473C29.5195 28.3533 29.135 28.2009 28.7371 28.2009C28.3652 28.2009 28.1435 28.3404 28.1435 28.5723C28.1435 28.7837 28.3779 28.8436 28.6714 28.883L28.9909 28.9292C29.6696 29.0293 30.0802 29.3203 30.0802 29.8765C30.0802 30.479 29.5584 30.9094 28.6587 30.9094C28.1495 30.9094 27.6798 30.7768 27.308 30.4987L27.6276 29.9622C27.856 30.141 28.1958 30.2933 28.6654 30.2933C29.1283 30.2933 29.3762 30.1546 29.3762 29.9091C29.3762 29.731 29.2 29.631 28.8281 29.5787L28.5086 29.5325C27.8105 29.4324 27.432 29.1149 27.432 28.5988C27.432 27.9698 27.9412 27.5856 28.7303 27.5856C29.2261 27.5856 29.6763 27.6985 30.0018 27.9168L29.7084 28.473ZM38.0744 28.2396C37.9348 28.2396 37.8056 28.2646 37.6854 28.3139C37.5659 28.3639 37.4622 28.4336 37.3748 28.523C37.2875 28.6124 37.2188 28.7201 37.1687 28.8451C37.1187 28.9701 37.0941 29.1081 37.0941 29.2581C37.0941 29.4089 37.1187 29.5461 37.1687 29.6711C37.2188 29.7962 37.2875 29.9038 37.3748 29.9932C37.4622 30.0826 37.5659 30.1524 37.6854 30.2024C37.8056 30.2524 37.9348 30.2767 38.0744 30.2767C38.214 30.2767 38.3439 30.2524 38.4634 30.2024C38.5836 30.1524 38.6881 30.0826 38.7755 29.9932C38.8643 29.9038 38.933 29.7962 38.9838 29.6711C39.0338 29.5461 39.0585 29.4089 39.0585 29.2581C39.0585 29.1081 39.0338 28.9701 38.9838 28.8451C38.933 28.7201 38.8643 28.6124 38.7755 28.523C38.6881 28.4336 38.5836 28.3639 38.4634 28.3139C38.3439 28.2646 38.214 28.2396 38.0744 28.2396ZM38.0744 27.5856C38.3163 27.5856 38.5403 27.628 38.7464 27.7137C38.9524 27.7985 39.1309 27.916 39.281 28.0653C39.4318 28.2146 39.549 28.3912 39.6341 28.5943C39.7192 28.7981 39.7618 29.0194 39.7618 29.2581C39.7618 29.4968 39.7192 29.7181 39.6341 29.922C39.549 30.1251 39.4318 30.3024 39.281 30.4517C39.1309 30.601 38.9524 30.7177 38.7464 30.8033C38.5403 30.8882 38.3163 30.9307 38.0744 30.9307C37.8325 30.9307 37.6085 30.8882 37.4024 30.8033C37.1964 30.7177 37.0194 30.601 36.8701 30.4517C36.7208 30.3024 36.6035 30.1251 36.5184 29.922C36.4333 29.7181 36.3908 29.4968 36.3908 29.2581C36.3908 29.0194 36.4333 28.7981 36.5184 28.5943C36.6035 28.3912 36.7208 28.2146 36.8701 28.0653C37.0194 27.916 37.1964 27.7985 37.4024 27.7137C37.6085 27.628 37.8325 27.5856 38.0744 27.5856ZM20.442 29.2475C20.442 28.6913 20.8011 28.2343 21.388 28.2343C21.9487 28.2343 22.3273 28.6716 22.3273 29.2475C22.3273 29.8235 21.9487 30.26 21.388 30.26C20.8011 30.26 20.442 29.8038 20.442 29.2475ZM22.9664 29.2475V27.6652H22.2884V28.0494C22.0726 27.7644 21.7471 27.5856 21.3036 27.5856C20.4293 27.5856 19.7447 28.2805 19.7447 29.2475C19.7447 30.2138 20.4293 30.9094 21.3036 30.9094C21.7471 30.9094 22.0726 30.7306 22.2884 30.4456V30.8299H22.9664V29.2475ZM19.1444 30.8299V28.8436C19.1444 28.0956 18.6747 27.5924 17.9184 27.5856C17.5205 27.5788 17.1091 27.7046 16.8224 28.1487C16.6073 27.7978 16.2676 27.5856 15.7913 27.5856C15.459 27.5856 15.1327 27.6849 14.8781 28.0554V27.6652H14.2002V30.8299H14.8849V29.0755C14.8849 28.5261 15.185 28.2343 15.6479 28.2343C16.0981 28.2343 16.3266 28.5321 16.3266 29.0687V30.8299H17.0113V29.0755C17.0113 28.5261 17.3248 28.2343 17.7743 28.2343C18.238 28.2343 18.4597 28.5321 18.4597 29.0687V30.8299H19.1444Z" fill="#231F20"/><path d="M40.4928 30.5928V30.6709H40.5638C40.5794 30.6709 40.5929 30.6671 40.6018 30.661C40.6115 30.6549 40.6168 30.6443 40.6168 30.6314C40.6168 30.6186 40.6115 30.6087 40.6018 30.6026C40.5929 30.5958 40.5794 30.5928 40.5638 30.5928H40.4928ZM40.5645 30.5382C40.6011 30.5382 40.6295 30.5466 40.6496 30.5632C40.6698 30.5799 40.6795 30.6026 40.6795 30.6314C40.6795 30.6557 40.672 30.6754 40.6556 30.6913C40.6399 30.7065 40.6168 30.7163 40.5876 30.7201L40.6817 30.83H40.6086L40.5212 30.7209H40.4928V30.83H40.4316V30.5382H40.5645ZM40.5458 30.93C40.5794 30.93 40.6108 30.924 40.6392 30.9111C40.6683 30.8982 40.6937 30.8808 40.7153 30.8588C40.737 30.8368 40.7541 30.8111 40.7668 30.7807C40.7788 30.7512 40.7855 30.7194 40.7855 30.6853C40.7855 30.6512 40.7788 30.6193 40.7668 30.5898C40.7541 30.5602 40.737 30.5337 40.7153 30.5117C40.6937 30.4897 40.6683 30.4723 40.6392 30.4602C40.6108 30.4473 40.5794 30.4412 40.5458 30.4412C40.5122 30.4412 40.4801 30.4473 40.451 30.4602C40.4211 30.4723 40.395 30.4897 40.3734 30.5117C40.3517 30.5337 40.3345 30.5602 40.3226 30.5898C40.3099 30.6193 40.3039 30.6512 40.3039 30.6853C40.3039 30.7194 40.3099 30.7512 40.3226 30.7807C40.3345 30.8111 40.3517 30.8368 40.3734 30.8588C40.395 30.8808 40.4211 30.8982 40.451 30.9111C40.4801 30.924 40.5122 30.93 40.5458 30.93ZM40.5458 30.3708C40.5899 30.3708 40.6302 30.3791 40.6683 30.3958C40.7071 30.4117 40.74 30.4344 40.7691 30.4632C40.7975 30.4912 40.8199 30.5246 40.8363 30.5632C40.8527 30.6011 40.8609 30.6421 40.8609 30.6853C40.8609 30.7284 40.8527 30.7694 40.8363 30.8073C40.8199 30.8452 40.7975 30.8785 40.7691 30.9065C40.74 30.9353 40.7071 30.9581 40.6683 30.9747C40.6302 30.9914 40.5899 30.9998 40.5458 30.9998C40.501 30.9998 40.46 30.9914 40.4211 30.9747C40.3823 30.9581 40.3487 30.9353 40.3204 30.9065C40.292 30.8785 40.2696 30.8452 40.2532 30.8073C40.2367 30.7694 40.2285 30.7284 40.2285 30.6853C40.2285 30.6421 40.2367 30.6011 40.2532 30.5632C40.2696 30.5246 40.292 30.4912 40.3204 30.4632C40.3487 30.4344 40.3823 30.4117 40.4211 30.3958C40.46 30.3791 40.501 30.3708 40.5458 30.3708Z" fill="#231F20"/></svg>