<svg width="54" height="32" viewBox="0 0 54 32" fill="none" xmlns="http://www.w3.org/2000/svg"><path d="M45.2118 30.5889V30.667H45.2827C45.2984 30.667 45.3119 30.6632 45.3216 30.6571C45.3305 30.6511 45.3358 30.6405 45.3358 30.6276C45.3358 30.6147 45.3305 30.6049 45.3216 30.5988C45.3119 30.592 45.2984 30.5889 45.2827 30.5889H45.2118ZM45.2835 30.5344C45.3201 30.5344 45.3485 30.5427 45.3686 30.5594C45.3888 30.5761 45.3985 30.5988 45.3985 30.6276C45.3985 30.6518 45.391 30.6715 45.3746 30.6875C45.3589 30.7026 45.3365 30.7125 45.3066 30.7162L45.4007 30.8261H45.3275L45.2402 30.717H45.2118V30.8261H45.1506V30.5344H45.2835ZM45.2648 30.9269C45.2984 30.9269 45.3298 30.9201 45.3582 30.9072C45.3873 30.8943 45.4127 30.8769 45.4343 30.8549C45.456 30.8329 45.4731 30.8072 45.4858 30.7769C45.4978 30.7473 45.5045 30.7155 45.5045 30.6814C45.5045 30.6473 45.4978 30.6155 45.4858 30.5859C45.4731 30.5564 45.456 30.5298 45.4343 30.5079C45.4127 30.4859 45.3873 30.4685 45.3582 30.4556C45.3298 30.4435 45.2984 30.4374 45.2648 30.4374C45.2312 30.4374 45.1991 30.4435 45.17 30.4556C45.1401 30.4685 45.114 30.4859 45.0924 30.5079C45.0707 30.5298 45.0535 30.5564 45.0416 30.5859C45.0289 30.6155 45.0229 30.6473 45.0229 30.6814C45.0229 30.7155 45.0289 30.7473 45.0416 30.7769C45.0535 30.8072 45.0707 30.8329 45.0924 30.8549C45.114 30.8769 45.1401 30.8943 45.17 30.9072C45.1991 30.9201 45.2312 30.9269 45.2648 30.9269ZM45.2648 30.3669C45.3089 30.3669 45.3492 30.3753 45.388 30.3919C45.4261 30.4078 45.459 30.4306 45.4881 30.4594C45.5164 30.4874 45.5388 30.5207 45.5553 30.5594C45.5717 30.5973 45.5799 30.6382 45.5799 30.6814C45.5799 30.7246 45.5717 30.7655 45.5553 30.8034C45.5388 30.8413 45.5164 30.8746 45.4881 30.9034C45.459 30.9314 45.4261 30.9542 45.388 30.9708C45.3492 30.9875 45.3089 30.9958 45.2648 30.9958C45.22 30.9958 45.179 30.9875 45.1401 30.9708C45.1013 30.9542 45.0677 30.9314 45.0393 30.9034C45.011 30.8746 44.9886 30.8413 44.9722 30.8034C44.9557 30.7655 44.9475 30.7246 44.9475 30.6814C44.9475 30.6382 44.9557 30.5973 44.9722 30.5594C44.9886 30.5207 45.011 30.4874 45.0393 30.4594C45.0677 30.4306 45.1013 30.4078 45.1401 30.3919C45.179 30.3753 45.22 30.3669 45.2648 30.3669ZM16.1754 29.2432C16.1754 28.687 16.5346 28.2301 17.1214 28.2301C17.6821 28.2301 18.0607 28.6673 18.0607 29.2432C18.0607 29.8191 17.6821 30.2563 17.1214 30.2563C16.5346 30.2563 16.1754 29.7994 16.1754 29.2432ZM18.6998 29.2432V27.661H18.0218V28.0452C17.8068 27.7603 17.4805 27.5815 17.037 27.5815C16.1627 27.5815 15.4773 28.2771 15.4773 29.2432C15.4773 30.2101 16.1627 30.9049 17.037 30.9049C17.4805 30.9049 17.8068 30.7261 18.0218 30.4412V30.8254H18.6998V29.2432ZM41.6093 29.2432C41.6093 28.687 41.9685 28.2301 42.5553 28.2301C43.1168 28.2301 43.4946 28.6673 43.4946 29.2432C43.4946 29.8191 43.1168 30.2563 42.5553 30.2563C41.9685 30.2563 41.6093 29.7994 41.6093 29.2432ZM44.1344 29.2432V26.3903H43.4557V28.0452C43.2407 27.7603 42.9144 27.5815 42.4709 27.5815C41.5966 27.5815 40.9112 28.2771 40.9112 29.2432C40.9112 30.2101 41.5966 30.9049 42.4709 30.9049C42.9144 30.9049 43.2407 30.7261 43.4557 30.4412V30.8254H44.1344V29.2432ZM27.115 28.1975C27.5518 28.1975 27.8325 28.4756 27.9042 28.9651H26.2863C26.3587 28.5082 26.632 28.1975 27.115 28.1975ZM27.1285 27.5815C26.2146 27.5815 25.5755 28.2566 25.5755 29.2432C25.5755 30.2495 26.2407 30.9049 27.174 30.9049C27.6436 30.9049 28.0737 30.786 28.4522 30.4616L28.12 29.9517C27.8587 30.1631 27.5257 30.2828 27.2128 30.2828C26.7761 30.2828 26.3781 30.0775 26.2803 29.5077H28.5956C28.6023 29.422 28.609 29.3356 28.609 29.2432C28.6023 28.2566 28.002 27.5815 27.1285 27.5815ZM35.3145 29.2432C35.3145 28.687 35.6736 28.2301 36.2605 28.2301C36.8212 28.2301 37.1997 28.6673 37.1997 29.2432C37.1997 29.8191 36.8212 30.2563 36.2605 30.2563C35.6736 30.2563 35.3145 29.7994 35.3145 29.2432ZM37.8389 29.2432V27.661H37.1609V28.0452C36.9451 27.7603 36.6196 27.5815 36.1761 27.5815C35.3018 27.5815 34.6164 28.2771 34.6164 29.2432C34.6164 30.2101 35.3018 30.9049 36.1761 30.9049C36.6196 30.9049 36.9451 30.7261 37.1609 30.4412V30.8254H37.8389V29.2432ZM31.4858 29.2432C31.4858 30.2033 32.1443 30.9049 33.1493 30.9049C33.6189 30.9049 33.9318 30.7988 34.2707 30.5276L33.9452 29.9714C33.6906 30.157 33.4233 30.2563 33.1291 30.2563C32.5878 30.2495 32.1899 29.8524 32.1899 29.2432C32.1899 28.634 32.5878 28.2369 33.1291 28.2301C33.4233 28.2301 33.6906 28.3294 33.9452 28.515L34.2707 27.9588C33.9318 27.6876 33.6189 27.5815 33.1493 27.5815C32.1443 27.5815 31.4858 28.2831 31.4858 29.2432ZM40.2266 27.5815C39.8353 27.5815 39.5807 27.7671 39.4045 28.0452V27.661H38.7326V30.8254H39.4113V29.0515C39.4113 28.5279 39.633 28.2369 40.0765 28.2369C40.2139 28.2369 40.3572 28.2566 40.5006 28.3165L40.7096 27.6679C40.5596 27.608 40.364 27.5815 40.2266 27.5815ZM22.0529 27.9126C21.7266 27.6944 21.2771 27.5815 20.7814 27.5815C19.9914 27.5815 19.483 27.9657 19.483 28.5946C19.483 29.1106 19.8615 29.4288 20.5589 29.5281L20.8792 29.5743C21.251 29.6274 21.4265 29.7266 21.4265 29.9055C21.4265 30.1502 21.1786 30.2896 20.7157 30.2896C20.246 30.2896 19.9071 30.1373 19.6786 29.9585L19.359 30.4942C19.7309 30.7723 20.2005 30.9049 20.709 30.9049C21.6094 30.9049 22.1313 30.4745 22.1313 29.8721C22.1313 29.3159 21.7206 29.025 21.042 28.9257L20.7224 28.8787C20.429 28.8393 20.1938 28.7802 20.1938 28.5681C20.1938 28.3362 20.4155 28.1975 20.7873 28.1975C21.1853 28.1975 21.5706 28.3498 21.7595 28.4688L22.0529 27.9126ZM30.8004 27.5815C30.4092 27.5815 30.1546 27.7671 29.9791 28.0452V27.661H29.3071V30.8254H29.9851V29.0515C29.9851 28.5279 30.2068 28.2369 30.6503 28.2369C30.7877 28.2369 30.931 28.2566 31.0744 28.3165L31.2835 27.6679C31.1334 27.608 30.9378 27.5815 30.8004 27.5815ZM25.0148 27.661H23.906V26.701H23.2206V27.661H22.5882V28.29H23.2206V29.7335C23.2206 30.4677 23.5013 30.9049 24.3032 30.9049C24.5974 30.9049 24.9364 30.8125 25.1514 30.6602L24.9558 30.0707C24.7534 30.1896 24.5317 30.2495 24.3555 30.2495C24.0165 30.2495 23.906 30.0373 23.906 29.7198V28.29H25.0148V27.661ZM14.8778 30.8254V28.8393C14.8778 28.0914 14.4082 27.5883 13.6511 27.5815C13.2531 27.5747 12.8425 27.7004 12.555 28.1445C12.34 27.7937 12.001 27.5815 11.5247 27.5815C11.1917 27.5815 10.8661 27.6807 10.6115 28.0513V27.661H9.93286V30.8254H10.6175V29.0712C10.6175 28.5218 10.9177 28.2301 11.3813 28.2301C11.8315 28.2301 12.0593 28.5279 12.0593 29.0644V30.8254H12.7447V29.0712C12.7447 28.5218 13.0575 28.2301 13.5077 28.2301C13.9706 28.2301 14.1924 28.5279 14.1924 29.0644V30.8254H14.8778Z" fill="#231F20"/><path d="M45.6299 20.302V19.8398H45.5112L45.3738 20.1573L45.2372 19.8398H45.1177V20.302H45.2021V19.9534L45.3305 20.2543H45.4179L45.5463 19.9527V20.302H45.6299ZM44.8766 20.302V19.9186H45.0289V19.8405H44.6406V19.9186H44.7929V20.302H44.8766Z" fill="#F79410"/><path d="M32.1308 22.2901H21.856V3.5498H32.1308V22.2901Z" fill="#FF5F00"/><path d="M22.5145 12.9185C22.5145 9.1169 24.2683 5.73057 26.9995 3.54829C25.0022 1.95249 22.4816 1.00002 19.7422 1.00002C13.257 1.00002 8 6.336 8 12.9185C8 19.5009 13.257 24.8369 19.7422 24.8369C22.4816 24.8369 25.0022 23.8844 26.9995 22.2886C24.2683 20.1064 22.5145 16.72 22.5145 12.9185Z" fill="#EB001B"/><path d="M45.9882 12.9185C45.9882 19.5009 40.7312 24.8369 34.246 24.8369C31.5066 24.8369 28.986 23.8844 26.988 22.2886C29.72 20.1064 31.4738 16.72 31.4738 12.9185C31.4738 9.1169 29.72 5.73057 26.988 3.54829C28.986 1.95249 31.5066 1.00002 34.246 1.00002C40.7312 1.00002 45.9882 6.336 45.9882 12.9185Z" fill="#F79E1B"/></svg>