<svg xmlns="http://www.w3.org/2000/svg" width="54" height="32" viewBox="0 0 54 32" fill="none"><path d="M28.307 12.777c-.026 2.08 1.884 3.242 3.324 3.933 1.479.708 1.976 1.162 1.97 1.796-.011.97-1.18 1.398-2.273 1.414-1.909.03-3.018-.507-3.9-.913l-.687 3.167c.885.401 2.523.751 4.222.766 3.989 0 6.598-1.938 6.612-4.943.016-3.813-5.358-4.024-5.322-5.729.013-.517.514-1.068 1.612-1.209.543-.07 2.044-.124 3.744.647l.668-3.064C37.362 8.314 36.187 8 34.723 8c-3.754 0-6.395 1.965-6.416 4.777zm16.384-4.513c-.728 0-1.342.418-1.616 1.06l-5.697 13.391h3.986l.793-2.157h4.87l.46 2.157H51l-3.065-14.45H44.69zm.558 3.904l1.15 5.427h-3.15l2-5.427zM23.475 8.264l-3.142 14.451h3.798l3.14-14.45h-3.796zm-5.619 0L13.903 18.1l-1.599-8.363c-.188-.934-.928-1.473-1.751-1.473H4.09l-.09.42c1.327.283 2.834.74 3.747 1.23.559.298.718.56.902 1.27l3.029 11.531h4.013l6.154-14.45h-3.989z" fill="url(#prefix__paint0_linear_visa)"/><defs><linearGradient id="prefix__paint0_linear_visa" x1="25.608" y1="23.24" x2="26.034" y2="7.896" gradientUnits="userSpaceOnUse"><stop stop-color="#222357"/><stop offset="1" stop-color="#254AA5"/></linearGradient></defs></svg>