<svg class="icon_defaultIcon__pltkn10 icon_bigIcon__pltkn12" xmlns="http://www.w3.org/2000/svg" viewBox="0 0 24 24" enable-background="new 0 0 24 24"><path d="M21.7 20.3l-5.4-5.4c1.1-1.4 1.7-3.1 1.7-4.9 0-2.1-.8-4.1-2.3-5.7-1.6-1.5-3.6-2.3-5.7-2.3s-4.1.8-5.7 2.3c-1.5 1.6-2.3 3.6-2.3 5.7s.8 4.1 2.3 5.7c1.6 1.5 3.6 2.3 5.7 2.3 1.8 0 3.5-.6 4.9-1.7l5.4 5.4 1.4-1.4zm-11.7-4.3c-1.6 0-3.1-.6-4.2-1.8-1.2-1.1-1.8-2.6-1.8-4.2s.6-3.1 1.8-4.2c1.1-1.2 2.6-1.8 4.2-1.8s3.1.6 4.2 1.8c1.2 1.1 1.8 2.6 1.8 4.2s-.6 3.1-1.8 4.2c-1.1 1.2-2.6 1.8-4.2 1.8z"/></svg>